# xmcd
#
# Track frame offsets: 
#        150
#        21815
#        41903
#        55589
#        78509
#        96891
#        138429
#        159817
#        172490
#        188915
#        200882
#        227366
#        240680
#        264999
#
# Disc length: 3729 seconds
#
# Revision: 1
# Processed by: cddbd v1.5.1PL2 Copyright (c) Steve Scherf et al.
# Submitted via: ExactAudioCopy v0.95b3
#
DISCID=bb0e8f0e
DTITLE=Mississippi Fred McDowell - "I do not play no rock 'n' roll"
DYEAR=2001
DGENRE=Blues
TTITLE0=Baby Please Don't Go
TTITLE1=Good Morning Little School Girl
TTITLE2=Kokomo Me Baby
TTITLE3=That's All Right Baby
TTITLE4=Red Cross Store
TTITLE5=Everybody's Down On Me
TTITLE6=61 Highway
TTITLE7=Glory Hallelujah
TTITLE8=Jesus Is On The Mainline
TTITLE9=My Baby She Gonna Jump And Shout
TTITLE10=Long Line Skinner
TTITLE11=You Got To Move
TTITLE12=The Train I Ride
TTITLE13=You Ain't Gonna Worry My Life Anymore
EXTD=
EXTT0=
EXTT1=
EXTT2=
EXTT3=
EXTT4=
EXTT5=
EXTT6=
EXTT7=
EXTT8=
EXTT9=
EXTT10=
EXTT11=
EXTT12=
EXTT13=
PLAYORDER=
